<?xml version="1.0" standalone="no"?>
<!DOCTYPE svg PUBLIC "-//W3C//DTD SVG 20010904//EN"
 "http://www.w3.org/TR/2001/REC-SVG-20010904/DTD/svg10.dtd">
<svg version="1.0" xmlns="http://www.w3.org/2000/svg"
 width="256.000000pt" height="256.000000pt" viewBox="0 0 256.000000 256.000000"
 preserveAspectRatio="xMidYMid meet">
<metadata>
Created by potrace 1.11, written by Peter Selinger 2001-2013
</metadata>
<g transform="translate(0.000000,256.000000) scale(0.100000,-0.100000)"
fill="#000000" stroke="none">
<path d="M744 2488 c-82 -98 -91 -212 -28 -354 41 -92 46 -135 28 -217 -30
-138 -30 -147 -2 -147 33 0 91 61 122 130 41 88 37 166 -16 293 -42 101 -43
103 -41 215 2 103 1 112 -17 112 -10 0 -31 -15 -46 -32z"/>
<path d="M1246 2493 c-83 -89 -94 -208 -33 -360 41 -103 46 -154 22 -243 -22
-80 -20 -120 5 -120 28 0 92 67 121 126 20 41 24 63 23 134 0 77 -4 93 -40
170 -38 83 -39 87 -39 200 0 99 -2 115 -17 118 -9 2 -28 -10 -42 -25z"/>
<path d="M1736 2489 c-52 -61 -61 -88 -61 -184 0 -79 4 -100 34 -175 39 -98
43 -166 17 -266 -22 -83 -21 -94 8 -94 31 0 100 75 127 138 14 32 21 70 21
117 1 61 -4 83 -42 170 -43 100 -43 100 -42 213 2 104 0 112 -17 112 -11 0
-31 -14 -45 -31z"/>
<path d="M125 1586 c-104 -46 -139 -142 -110 -306 64 -376 309 -717 647 -903
l58 -31 -6 -101 c-5 -90 -3 -103 15 -133 12 -19 40 -42 64 -52 39 -18 70 -20
466 -20 296 0 436 4 463 12 47 14 95 65 103 111 4 18 2 63 -3 100 l-9 67 82
45 c347 195 585 526 650 905 26 148 3 231 -78 287 l-40 28 -1136 2 c-930 2
-1141 0 -1166 -11z m2255 -178 c7 -16 7 -45 -2 -93 l-13 -70 -93 -3 -92 -3 0
-94 0 -95 -80 0 -80 0 0 65 c0 63 1 65 25 65 23 0 25 -4 25 -40 0 -38 2 -40
30 -40 l30 0 0 70 0 70 -85 0 -85 0 0 -125 0 -125 140 0 140 0 0 95 0 95 50 0
c28 0 50 -4 50 -9 0 -22 -14 -41 -30 -41 -14 0 -18 -11 -22 -57 -4 -44 -14
-74 -43 -123 -122 -207 -308 -372 -526 -468 l-96 -42 -349 0 -349 0 -110 54
c-61 30 -138 74 -173 98 -76 54 -188 162 -247 238 -41 55 -95 141 -95 153 0 4
18 7 40 7 l40 0 0 95 0 95 80 0 80 0 0 -65 c0 -63 -1 -65 -25 -65 -22 0 -25 4
-25 40 0 38 -2 40 -30 40 l-30 0 0 -70 0 -70 85 0 85 0 0 125 0 125 -140 0
-140 0 0 -95 0 -95 -29 0 c-22 0 -32 6 -37 22 -4 13 -2 24 5 26 7 2 11 30 11
72 l0 69 -37 3 -38 3 -13 70 c-9 48 -9 77 -2 93 l10 22 1090 0 1090 0 10 -22z
m-734 -1123 l10 -75 -389 0 -389 0 6 48 c4 26 9 59 12 75 l6 27 367 0 368 0 9
-75z"/>
<path d="M710 1115 l0 -125 145 0 145 0 0 95 0 95 80 0 80 0 0 -65 c0 -63 -1
-65 -25 -65 -22 0 -25 4 -25 40 0 38 -2 40 -30 40 l-30 0 0 -70 0 -70 85 0 85
0 0 125 0 125 -140 0 -140 0 0 -95 0 -95 -80 0 -80 0 0 65 c0 63 1 65 25 65
23 0 25 -4 25 -40 0 -38 2 -40 30 -40 l30 0 0 70 0 70 -90 0 -90 0 0 -125z"/>
<path d="M1340 1115 l0 -125 140 0 140 0 0 95 0 95 80 0 80 0 0 -65 c0 -63 -1
-65 -25 -65 -22 0 -25 4 -25 40 0 38 -2 40 -30 40 l-30 0 0 -70 0 -70 90 0 90
0 0 125 0 125 -145 0 -145 0 0 -95 0 -95 -80 0 -80 0 0 65 c0 63 1 65 25 65
23 0 25 -4 25 -40 0 -38 2 -40 30 -40 l30 0 0 70 0 70 -85 0 -85 0 0 -125z"/>
</g>
</svg>
